<?xml version="1.0" encoding="UTF-8"?>

<svg version="1.2" baseProfile="tiny" viewBox="0 0 12700 12700" preserveAspectRatio="xMidYMid" fill-rule="evenodd" clip-path="url(#presentation_clip_path)" stroke-width="28.222" stroke-linejoin="round" xmlns="http://www.w3.org/2000/svg" xmlns:xlink="http://www.w3.org/1999/xlink" xmlns:draw="urn:oasis:names:tc:opendocument:xmlns:drawing:1.0" xmlns:presentation="urn:oasis:names:tc:opendocument:xmlns:presentation:1.0" xmlns:smil="urn:oasis:names:tc:opendocument:xmlns:smil-compatible:1.0" xmlns:anim="urn:oasis:names:tc:opendocument:xmlns:animation:1.0" xml:space="preserve">
 <defs>
  <clipPath id="presentation_clip_path" clipPathUnits="userSpaceOnUse">
   <rect x="0" y="0" width="12700" height="12700"/>
  </clipPath>
 </defs>
 <g id="id2" class="Master_Slide" clip-path="url(#presentation_clip_path)">
  <g id="bg-id2" visibility="visible" class="Background">
   <rect fill="none" stroke="none" x="0" y="0" width="12700" height="12700"/>
  </g>
  <g id="bo-id2" visibility="visible" class="BackgroundObjects"/>
 </g>
 <g id="id1" class="Slide" visibility="visible" clip-path="url(#presentation_clip_path)">
  <g class="com.sun.star.drawing.ClosedBezierShape">
   <g>
    <path fill="rgb(0,0,0)" stroke="none" d="M 12145,1288 C 12127,1288 12110,1290 12093,1293 12092,1293 12092,1292 12091,1293 L 10334,1577 C 10222,1595 10129,1668 10087,1768 L 10087,1769 9272,3750 1316,3938 C 1225,3940 1139,3979 1080,4045 1020,4110 991,4196 1003,4283 L 1441,7726 C 1459,7870 1585,7985 1738,7997 L 7411,8423 8535,9262 C 8536,9262 8537,9263 8539,9265 8540,9265 8542,9266 8543,9267 8545,9268 8545,9268 8547,9269 8752,9414 8803,9612 8774,9722 8758,9784 8733,9831 8673,9866 8613,9901 8509,9927 8331,9917 L 8331,9917 8330,9917 C 8324,9917 8318,9917 8312,9917 8311,9917 8310,9917 8309,9917 L 1544,9936 1543,9936 C 1365,9935 1216,10076 1217,10245 1217,10413 1367,10554 1545,10551 L 1546,10551 2040,10550 C 1857,10662 1733,10856 1733,11076 1733,11419 2030,11700 2392,11700 2754,11700 3050,11419 3050,11076 3050,10855 2927,10659 2741,10548 L 8312,10533 C 8111,10640 7974,10844 7974,11076 7974,11419 8271,11700 8632,11700 8995,11700 9291,11419 9291,11076 9291,10779 9067,10528 8772,10466 9051,10373 9266,10180 9400,9884 9401,9880 9403,9877 9405,9873 9507,9486 9325,9066 8953,8792 8952,8792 8951,8791 8949,8789 8948,8789 8948,8787 8947,8787 8944,8783 8941,8780 8937,8776 L 8140,8184 10624,2154 12201,1900 12202,1900 C 12367,1874 12488,1728 12474,1570 12460,1410 12314,1285 12145,1288 Z M 9032,4225 L 8574,5338 7977,5338 7977,4250 9032,4225 Z M 7749,4256 L 7749,5338 6646,5338 6646,4282 7749,4256 Z M 6419,4286 L 6419,5338 5316,5338 5316,4313 6419,4286 Z M 5089,4319 L 5089,5338 3986,5338 3986,4345 5089,4319 Z M 3758,4350 L 3758,5338 2655,5338 2655,4376 3758,4350 Z M 2428,4381 L 2428,5338 1619,5338 1499,4403 2428,4381 Z M 1646,5553 L 2428,5553 2428,6531 1771,6531 1646,5553 Z M 2655,5553 L 3758,5553 3758,6531 2655,6531 2655,5553 Z M 3986,5553 L 5089,5553 5089,6531 3986,6531 3986,5553 Z M 5316,5553 L 6419,5553 6419,6531 5316,6531 5316,5553 Z M 6646,5553 L 7749,5553 7749,6531 6646,6531 6646,5553 Z M 7977,5553 L 8486,5553 8084,6531 7977,6531 7977,5553 Z M 1798,6746 L 2428,6746 2428,7448 1883,7406 1798,6746 Z M 2655,6746 L 3758,6746 3758,7547 2655,7464 2655,6746 Z M 3986,6746 L 5089,6746 5089,7647 3986,7565 3986,6746 Z M 5316,6746 L 6419,6746 6419,7748 5316,7665 5316,6746 Z M 6646,6746 L 7749,6746 7749,7341 7540,7848 C 7513,7836 7484,7829 7453,7826 L 6646,7765 6646,6746 Z M 7977,6746 L 7994,6746 7977,6789 7977,6746 Z M 2392,10710 C 2607,10710 2779,10873 2779,11076 2779,11280 2607,11442 2392,11442 2177,11442 2005,11280 2005,11076 2005,10873 2177,10710 2392,10710 Z M 8632,10710 C 8848,10710 9020,10873 9020,11076 9020,11280 8848,11442 8632,11442 8417,11442 8245,11280 8245,11076 8245,10873 8417,10710 8632,10710 Z M 2392,10884 C 2275,10884 2182,10972 2182,11083 2182,11194 2275,11281 2392,11281 2508,11281 2602,11194 2602,11083 2602,10972 2508,10884 2392,10884 Z M 8632,10884 C 8516,10884 8423,10972 8423,11083 8423,11194 8516,11281 8632,11281 8750,11281 8843,11194 8843,11083 8843,10972 8750,10884 8632,10884 Z"/>
    <rect fill="none" stroke="none" x="1000" y="1288" width="11477" height="10414"/>
   </g>
  </g>
 </g>
</svg>