<?xml version="1.0" encoding="UTF-8" standalone="no"?>
<svg xmlns:dc="http://purl.org/dc/elements/1.1/" xmlns:cc="http://creativecommons.org/ns#" xmlns:rdf="http://www.w3.org/1999/02/22-rdf-syntax-ns#" xmlns:svg="http://www.w3.org/2000/svg" xmlns="http://www.w3.org/2000/svg" xmlns:xlink="http://www.w3.org/1999/xlink" version="1.0" width="500" height="500" id="car">
  <g id="left">
    <path d="m 30,370 0,69 c 0,8.864 7.136,16 16,16 h 40 c 8.864,0 16,-7.136 16,-16 v -69 z"/>
    <path d="M 100.5,40 C 88.8907,40 78.9842,47.0138 74.7188,57.0312 l -72.5,170 C 0.78258,230.3982 0,234.0972 0,238.0002 v 94 c 0,15.512 12.488,28 28,28 h 223 v -175.125 l -192.906,0.53125 c 12.756,-32.024 38.281,-96.0935 38.281,-96.0935 4.788,-12.0195 5.115,-13.6307 12.031,-13.625 L 251,75.81295 V 40 H 100.5 z"/>
    <path d="m 100,270 a 35,35 0 0 1 -70,0 35,35 0 1 1 70,0 z" style="fill:#FFF"/>
  </g>
  <use transform="matrix(-1,0,0,1,500,0)" xlink:href="#left"/>
  <metadata>
    <rdf:RDF>
      <cc:Work>
        <dc:format>image/svg+xml</dc:format>
        <dc:type rdf:resource="http://purl.org/dc/dcmitype/StillImage"/>
        <cc:license rdf:resource="http://creativecommons.org/licenses/publicdomain/"/>
        <dc:publisher>
          <cc:Agent rdf:about="http://openclipart.org/">
            <dc:title>Open Clip Art Library</dc:title>
          </cc:Agent>
        </dc:publisher>
        <dc:title>car pictogram</dc:title>
        <dc:date>2011-02-26T18:48:49</dc:date>
        <dc:description>pictogram of a car in front view</dc:description>
        <dc:source>http://openclipart.org/detail/122965/car-pictogram-by-pawnk</dc:source>
        <dc:creator>
          <cc:Agent>
            <dc:title>pawnk</dc:title>
          </cc:Agent>
        </dc:creator>
        <dc:subject>
          <rdf:Bag>
            <rdf:li>car</rdf:li>
            <rdf:li>clip art</rdf:li>
            <rdf:li>clipart</rdf:li>
            <rdf:li>pictogram</rdf:li>
          </rdf:Bag>
        </dc:subject>
      </cc:Work>
      <cc:License rdf:about="http://creativecommons.org/licenses/publicdomain/">
        <cc:permits rdf:resource="http://creativecommons.org/ns#Reproduction"/>
        <cc:permits rdf:resource="http://creativecommons.org/ns#Distribution"/>
        <cc:permits rdf:resource="http://creativecommons.org/ns#DerivativeWorks"/>
      </cc:License>
    </rdf:RDF>
  </metadata>
</svg>
